<svg xmlns="http://www.w3.org/2000/svg" width="677.332" height="118.281"><path fill="#B39062" d="M8.808 25.875c1.082-17.461 14.525-25.96 26.888-25.96 13.598 0 26.733 9.117 26.733 26.579 0 9.426-4.791 18.389-16.071 24.261 19.47 6.798 23.642 23.332 23.642 31.986 0 21.323-14.525 35.54-35.232 35.54-10.199 0-20.552-4.635-27.197-12.979-4.635-5.718-7.571-13.29-7.571-22.252h4.636c.618 21.634 16.998 31.06 30.596 31.06 18.543 0 30.133-13.906 30.133-30.44 0-12.826-9.272-30.751-32.605-30.751h-6.181v-4.172h6.026c23.179 0 25.188-17.771 25.188-22.407 0-12.98-8.963-22.251-21.634-22.251-13.598 0-21.943 10.044-22.715 21.788l-4.636-.002z"/><path fill="#B39062" d="M239.558 6.096h-31.06v-4.172h66.756v4.172h-31.06v110.177h-4.636v-110.177z"/><path fill="#B39062" d="M291.016 1.924v74.172c0 11.127 0 18.234 7.107 27.506 4.945 6.49 14.371 10.508 23.488 10.508 8.654 0 18.081-4.018 23.024-10.508 7.108-9.271 7.108-16.379 7.108-27.506v-74.172h4.636v74.172c.154 10.354-.311 25.807-13.753 35.231-5.872 4.327-13.443 6.953-21.324 6.953-7.727 0-15.299-2.626-21.17-6.953-13.443-9.427-13.908-24.878-13.753-35.231v-74.172h4.637z"/><path fill="#B39062" d="M370.752 1.924h26.114c17.771 0 24.879 1.545 30.44 4.791 9.272 4.636 16.535 17.152 16.535 30.441.31 7.108-1.854 16.07-7.263 23.179-8.345 10.972-17.926 12.362-30.905 12.826l30.75 43.112h-5.872l-33.53-47.285h3.243c8.346 0 21.943 0 29.206-7.264 7.264-7.571 9.735-15.452 9.735-24.415 0-9.89-4.791-20.861-13.599-26.578-6.954-4.481-15.299-4.636-28.742-4.636h-21.479v110.177h-4.636v-114.348h.003z"/><path fill="#B39062" d="M541.966 110.092v-108.168h4.636v114.35h-5.871l-79.737-109.714v109.713h-4.636v-114.349h6.954l78.654 108.168z"/><path fill="#B39062" d="M558.656 58.944c0-34.15 26.578-59.029 59.338-59.029 32.759 0 59.338 24.878 59.338 59.183 0 34.304-26.579 59.183-59.338 59.183-32.76 0-59.338-24.879-59.338-59.183v-.154zm4.636.309c0 31.522 24.415 54.856 54.702 54.856s54.702-23.334 54.702-55.012-24.415-55.01-54.702-55.01-54.702 23.333-54.702 55.011v.155z"/><path fill="#B39062" d="M81.15 112.094h99.313v4.18h-99.313v-4.18z"/><path fill="#B39062" d="M81.15 49.398c0-28.579 22.242-49.398 49.657-49.398 27.414 0 49.656 20.819 49.656 49.527 0 28.708-22.243 49.528-49.656 49.528-27.415 0-49.656-20.82-49.656-49.528l-.001-.129zm3.88.259c0 26.38 20.431 45.907 45.777 45.907s45.777-19.527 45.777-46.038c0-26.51-20.432-46.036-45.777-46.036-25.345 0-45.777 19.526-45.777 46.036v.131z"/><text transform="translate(-730 138.023)" font-family="'ITCAvantGardeStd-XLt'" font-size="154.529">3</text><text transform="translate(-601.434 138.023)" font-family="'ITCAvantGardeStd-XLt'" font-size="154.529">t</text><text transform="translate(-534.524 138.023)" font-family="'ITCAvantGardeStd-XLt'" font-size="154.529" letter-spacing="-6">u</text><text transform="translate(-448.761 138.023)" font-family="'ITCAvantGardeStd-XLt'" font-size="154.529">r</text><text transform="translate(-364.699 138.023)" font-family="'ITCAvantGardeStd-XLt'" font-size="154.529" letter-spacing="-5">n</text><text transform="translate(-256.84 138.023)" font-family="'ITCAvantGardeStd-XLt'" font-size="154.529">o</text></svg>