<svg xmlns="http://www.w3.org/2000/svg" width="1353.854" height="118.324"><g fill="#fff"><path d="M35.101 119.446c-12.804 0-32.46-8.494-34.131-31.895l-.077-1.071h6.601l.111.874c.336 2.652 3.959 25.911 27.342 25.911 13.369 0 27.799-10.036 27.799-26.25 0-19.771-16.668-24.21-27.698-27.148l-.964-.254c-9.945-2.447-30.638-7.539-30.638-29.885-.206-8.416 2.552-15.815 7.976-21.373 5.898-6.044 14.699-9.51 24.145-9.51 13.018 0 27.883 7.224 30.563 27.5l.15 1.131h-6.616l-.152-.817c-2.678-14.354-10.838-21.633-24.256-21.633-14.582 0-25.166 10.063-25.166 23.928-.143 16.783 12.94 21.454 30.058 25.817.372.104.793.211 1.275.335 6.917 1.777 27.967 7.184 27.967 31.291 0 9.15-3.759 17.62-10.583 23.848-6.41 5.847-15.05 9.201-23.706 9.201zM6.612 87.48c2.787 21.985 19.509 26.785 28.334 26.785 14.399 0 28.799-10.838 28.799-27.25 0-21.057-18.27-25.393-29.263-28.334-10.064-2.476-30.037-7.276-30.037-28.952-.465-19.045 14.554-29.883 31.121-29.883 13.47 0 27.095 7.896 29.572 26.631h-4.645c-1.703-9.135-6.812-22.451-25.238-22.451-14.554 0-26.166 9.909-26.166 24.928-.155 18.27 15.019 22.76 30.811 26.786 5.574 1.548 28.489 5.729 28.489 30.657 0 18.89-16.257 32.05-33.289 32.05-13.78 0-31.585-9.29-33.134-30.966h4.646zM174.873 117.434l-17.187-39.946h-58.603l-17.186 39.946h-7.129l49.938-116.575h7.358l49.938 116.575h-7.129zm-20.051-46.127l-26.512-62.545-26.365 62.544h52.877zM81.239 116.434h-4.955l49.081-114.575h6.039l49.082 114.575h-4.955l-17.187-39.946h-59.919l-17.186 39.946zm47.068-110.24l-27.87 66.113h55.894l-28.024-66.113z"/><polygon points="277.518,117.434 199.135,9.581 199.135,117.434 192.49,117.434 192.49,0.859 200.966,0.859 278.266,107.165 278.266,0.859 284.911,0.859 284.911,117.434"/><path d="M279.266 110.24v-108.381h4.645v114.575h-5.884l-79.892-109.931v109.93h-4.645v-114.574h6.967l78.809 108.381zM348.091 117.434v-116.575h27.631c13.065 0 21.174 1.083 29.236 7.007 7.188 5.228 12.02 15.881 12.02 26.507 0 10.626-4.832 21.28-12.024 26.511-8.058 5.92-16.167 7.004-29.232 7.004h-20.986v49.546h-6.645zm27.786-55.727c12.771 0 19.186-1.553 25.417-6.152 5.241-3.785 9.039-12.625 9.039-21.027 0-8.719-3.713-17.49-9.03-21.33-6.319-4.664-12.495-6.159-25.426-6.159h-21.141v54.668h21.141zM375.722 1.859c13.625 0 21.057 1.238 28.644 6.812 6.812 4.955 11.612 15.328 11.612 25.702 0 10.374-4.8 20.748-11.612 25.702-7.587 5.574-15.329 6.812-28.644 6.812h-21.986v49.546h-4.645v-114.574h26.631zm-21.986 60.848h22.141c12.851 0 19.508-1.548 26.011-6.348 5.574-4.026 9.445-13.161 9.445-21.832 0-8.98-3.871-18.115-9.445-22.141-6.503-4.8-13.006-6.348-26.011-6.348h-22.141v56.669z"/><polygon points="428.755,117.434 428.755,0.859 493.617,0.859 493.617,7.039 435.4,7.039 435.4,55.669 493.617,55.669 493.617,61.85 435.4,61.85 435.4,111.253 493.617,111.253 493.617,117.434"/><path d="M429.755 1.859h62.861v4.18h-58.216v50.63h58.216v4.181h-58.216v51.403h58.216v4.181h-62.861v-114.575zM513.447 117.434v-116.575h33.36c18.098 0 33.012 5.348 43.13 15.466 10.218 10.058 15.622 24.867 15.622 42.821 0 36.498-21.963 58.288-58.752 58.288h-33.36zm33.36-6.181c32.628 0 52.107-19.363 52.107-51.797 0-16.421-4.592-29.417-13.647-38.626-9.149-9.149-22.091-13.791-38.459-13.791h-26.715v104.214h26.714zM514.447 1.859h32.36c18.115 0 32.514 5.264 42.423 15.173 9.909 9.754 15.329 23.999 15.329 42.114 0 36.076-21.676 57.288-57.752 57.288h-32.36v-114.575zm4.645 110.394h27.715c33.134 0 53.107-19.663 53.107-52.797 0-16.722-4.8-30.038-13.935-39.327-9.135-9.135-22.296-14.09-39.172-14.09h-27.715v106.214zM680.835 117.434l-35.016-49.378h5.186c8.068 0 21.572 0 28.556-6.984 6.539-6.817 9.461-14.148 9.461-23.756 0-10.314-5.292-20.68-13.169-25.792-6.635-4.275-14.653-4.484-28.254-4.484h-20.521v110.395h-6.645v-116.576h27.167c18.855 0 25.646 1.81 31.006 4.936 9.863 4.928 17.062 18.132 17.062 31.365.361 8.273-2.434 17.198-7.479 23.83-8.339 10.964-18.099 12.645-29.875 13.171l30.864 43.272h-8.343zM621.433 1.859h26.167c17.806 0 24.928 1.548 30.502 4.8 9.291 4.645 16.566 17.186 16.566 30.501.311 7.122-1.857 16.103-7.275 23.225-8.362 10.993-17.961 12.387-30.967 12.851l30.811 43.198h-5.883l-33.598-47.378h3.251c8.361 0 21.986 0 29.263-7.277 7.278-7.587 9.754-15.483 9.754-24.463 0-9.909-4.799-20.902-13.625-26.631-6.968-4.49-15.328-4.645-28.799-4.645h-21.521v110.395h-4.645v-114.576z"/><polygon points="907.512,117.434 857.889,0.859 865.328,0.859 909.878,106.13 954.579,0.859 961.865,0.859 912.085,117.434"/><path d="M859.401 1.859h5.264l45.211 106.833 45.365-106.833h5.109l-48.926 114.575h-3.252l-48.771-114.575zM1046.397 117.434l-17.186-39.946h-58.604l-17.188 39.946h-7.128l49.939-116.575h7.357l49.939 116.575h-7.129zm-20.05-46.127l-26.511-62.545-26.367 62.544h52.878zM952.763 116.434h-4.953l49.08-114.575h6.039l49.082 114.575h-4.955l-17.186-39.946h-59.92l-17.187 39.946zm47.07-110.24l-27.871 66.113h55.895l-28.024-66.113z"/><polygon points="1064.015,117.434 1064.015,0.859 1070.659,0.859 1070.659,111.253 1119.122,111.253 1119.122,117.434"/><path d="M1065.015 1.859h4.645v110.394h48.463v4.181h-53.107v-114.575z"/><polygon points="1129.505,117.434 1129.505,0.859 1136.151,0.859 1136.151,111.253 1184.612,111.253 1184.612,117.434"/><path d="M1130.505 1.859h4.646v110.394h48.461v4.181h-53.107v-114.575z"/><polygon points="1194.997,117.434 1194.997,0.859 1259.858,0.859 1259.858,7.039 1201.644,7.039 1201.644,55.669 1259.858,55.669 1259.858,61.85 1201.644,61.85 1201.644,111.253 1259.858,111.253 1259.858,117.434"/><path d="M1195.997 1.859h62.861v4.18h-58.215v50.63h58.215v4.181h-58.215v51.403h58.215v4.181h-62.861v-114.575z"/><polygon points="1308.333,117.434 1308.333,77.192 1269.457,0.859 1276.812,0.859 1311.653,69.475 1346.341,0.859 1353.854,0.859 1314.978,77.192 1314.978,117.434"/><path d="M1309.333 76.952l-38.244-75.093h5.109l35.457 69.829 35.301-69.829h5.266l-38.244 75.093v39.481h-4.645v-39.481z"/></g><rect x="712.454" y="113.018" fill="#fff" width="101.16" height="6.139"/><path fill="#fff" d="M763.036 1.056c-13.651 0-26.349 5.06-35.755 14.245-9.562 9.337-14.827 22.15-14.827 36.091l.002.115c0 13.981 5.265 26.834 14.825 36.188 9.399 9.197 22.098 14.263 35.755 14.263 13.655 0 26.353-5.065 35.752-14.263 9.562-9.354 14.827-22.206 14.827-36.188 0-13.982-5.266-26.834-14.826-36.188-9.399-9.198-22.097-14.263-35.753-14.263zm-.001 5.45c12.098 0 23.343 4.538 31.663 12.776 8.434 8.351 13.078 19.794 13.078 32.223s-4.645 23.873-13.078 32.224c-8.32 8.239-19.565 12.777-31.663 12.777-25.089 0-44.742-19.709-44.742-44.87v-.131c0-12.429 4.644-23.872 13.078-32.223 8.319-8.238 19.565-12.776 31.664-12.776z"/></svg>