<svg xmlns="http://www.w3.org/2000/svg" width="1015.749" height="118.324"><g fill="#fff"><polygon points="197.681,117.434 148.058,0.859 155.497,0.859 200.046,106.13 244.749,0.859 252.034,0.859 202.253,117.434"/><path d="M149.57 1.859h5.264l45.21 106.833 45.367-106.833h5.109l-48.927 114.575h-3.251l-48.772-114.575z"/><rect x="262.522" y=".859" width="6.645" height="116.575"/><path d="M263.522 1.859h4.645v114.575h-4.645v-114.575zM291.166 117.434v-116.575h33.36c18.098 0 33.012 5.348 43.13 15.466 10.218 10.058 15.622 24.867 15.622 42.821 0 36.498-21.963 58.288-58.752 58.288h-33.36zm33.36-6.181c32.628 0 52.107-19.363 52.107-51.797 0-16.421-4.592-29.417-13.647-38.626-9.149-9.149-22.091-13.791-38.459-13.791h-26.715v104.214h26.714zM292.166 1.859h32.36c18.115 0 32.514 5.264 42.423 15.173 9.909 9.754 15.329 23.999 15.329 42.114 0 36.076-21.676 57.288-57.752 57.288h-32.36v-114.575zm4.645 110.394h27.715c33.134 0 53.107-19.663 53.107-52.797 0-16.722-4.8-30.038-13.935-39.327-9.135-9.135-22.296-14.09-39.172-14.09h-27.715v106.214z"/><polygon points="399.7,117.434 399.7,0.859 464.561,0.859 464.561,7.039 406.345,7.039 406.345,55.669 464.561,55.669 464.561,61.85 406.345,61.85 406.345,111.253 464.561,111.253 464.561,117.434"/><path d="M400.7 1.859h62.861v4.18h-58.216v50.63h58.216v4.181h-58.216v51.403h58.216v4.181h-62.861v-114.575zM710.819 119.446c-16.324 0-31.501-6.054-42.736-17.046-11.426-11.18-17.719-26.541-17.719-43.254s6.293-32.075 17.719-43.254c11.234-10.992 26.412-17.046 42.736-17.046 24.428.155 42.364 14.576 51.007 28.019l.991 1.541h-7.765l-.3-.417c-2.732-3.806-17.693-22.802-43.939-22.962-14.543 0-28.067 5.458-38.075 15.368-10.142 10.043-15.728 23.805-15.728 38.751s5.586 28.708 15.729 38.752c10.007 9.909 23.531 15.367 38.081 15.367 25.756 0 40.141-17.104 43.937-22.347l.299-.413h7.523l-.886 1.507c-8.033 13.656-26.879 27.434-50.874 27.434zM760.83 91.506c-7.741 13.16-26.012 26.94-50.011 26.94-32.824 0-59.455-24.928-59.455-59.3s26.631-59.3 59.455-59.3c24.464.155 41.805 14.554 50.166 27.56h-5.42c-4.335-6.039-19.354-23.225-44.746-23.379-30.347 0-54.81 23.379-54.81 55.12 0 31.741 24.463 55.12 54.81 55.12 26.786 0 41.495-18.27 44.746-22.76h5.265zM860.191 117.434l-17.186-39.946h-58.604l-17.187 39.946h-7.129l49.94-116.575h7.357l49.938 116.575h-7.129zm-20.049-46.127l-26.512-62.545-26.366 62.544h52.878zM766.558 116.434h-4.954l49.081-114.575h6.039l49.081 114.575h-4.955l-17.186-39.946h-59.92l-17.186 39.946zm47.069-110.24l-27.87 66.113h55.895l-28.025-66.113zM906.988 119.446c-12.805 0-32.46-8.494-34.131-31.895l-.077-1.071h6.6l.111.874c.336 2.652 3.96 25.911 27.342 25.911 13.369 0 27.799-10.036 27.799-26.25 0-19.771-16.668-24.21-27.698-27.148l-.965-.254c-9.944-2.447-30.638-7.54-30.638-29.885-.205-8.416 2.553-15.815 7.978-21.373 5.897-6.043 14.698-9.51 24.144-9.51 13.018 0 27.883 7.224 30.564 27.5l.149 1.131h-6.617l-.152-.817c-2.676-14.355-10.836-21.634-24.254-21.634-14.582 0-25.166 10.063-25.166 23.928-.143 16.783 12.94 21.454 30.059 25.816.372.104.794.211 1.275.335 6.917 1.777 27.966 7.184 27.966 31.291 0 9.15-3.759 17.619-10.583 23.848-6.41 5.849-15.05 9.203-23.706 9.203zM878.499 87.48c2.787 21.985 19.509 26.785 28.334 26.785 14.399 0 28.799-10.838 28.799-27.25 0-21.057-18.271-25.393-29.264-28.334-10.063-2.477-30.037-7.277-30.037-28.953-.464-19.044 14.555-29.883 31.121-29.883 13.471 0 27.096 7.896 29.573 26.631h-4.646c-1.703-9.135-6.812-22.451-25.237-22.451-14.554 0-26.166 9.909-26.166 24.928-.155 18.27 15.019 22.76 30.812 26.786 5.573 1.548 28.488 5.729 28.488 30.657 0 18.89-16.257 32.05-33.288 32.05-13.78 0-31.586-9.29-33.134-30.966h4.645z"/><polygon points="977.983,117.434 977.983,7.039 946.862,7.039 946.862,0.859 1015.749,0.859 1015.749,7.039 984.628,7.039 984.628,117.434"/><path d="M978.983 6.039h-31.121v-4.18h66.887v4.18h-31.121v110.395h-4.645v-110.395z"/></g><rect x="486.454" y="113.018" fill="#fff" width="101.16" height="6.139"/><path fill="#fff" d="M537.036 1.056c-13.651 0-26.349 5.06-35.755 14.245-9.562 9.337-14.827 22.15-14.827 36.091l.002.115c0 13.981 5.265 26.834 14.825 36.188 9.399 9.197 22.098 14.263 35.755 14.263 13.655 0 26.353-5.065 35.752-14.263 9.562-9.354 14.827-22.206 14.827-36.188 0-13.982-5.266-26.834-14.826-36.188-9.399-9.198-22.097-14.263-35.753-14.263zm-.001 5.45c12.098 0 23.343 4.538 31.663 12.776 8.434 8.351 13.078 19.794 13.078 32.223s-4.645 23.873-13.078 32.224c-8.32 8.239-19.565 12.777-31.663 12.777-25.089 0-44.742-19.709-44.742-44.87v-.131c0-12.429 4.644-23.872 13.078-32.223 8.319-8.238 19.565-12.776 31.664-12.776z"/><rect x="2.454" y="112.018" fill="#fff" width="101.16" height="6.139"/><path fill="#fff" d="M53.036.056c-13.651 0-26.349 5.06-35.755 14.245-9.561 9.337-14.827 22.15-14.827 36.091l.002.115c0 13.981 5.265 26.834 14.825 36.188 9.399 9.197 22.098 14.263 35.755 14.263 13.655 0 26.353-5.065 35.752-14.263 9.562-9.354 14.827-22.206 14.827-36.188 0-13.982-5.266-26.834-14.826-36.188-9.399-9.198-22.097-14.263-35.753-14.263zm-.001 5.45c12.098 0 23.343 4.538 31.663 12.776 8.434 8.351 13.078 19.794 13.078 32.223s-4.645 23.873-13.078 32.224c-8.32 8.239-19.565 12.777-31.663 12.777-25.089 0-44.742-19.709-44.742-44.87v-.131c0-12.429 4.644-23.872 13.078-32.223 8.319-8.238 19.565-12.776 31.664-12.776z"/></svg>