<svg xmlns="http://www.w3.org/2000/svg" width="1369.002" height="118.324"><text transform="translate(-730 138.022)" font-family="'ITCAvantGardeStd-XLt'" font-size="154.529">3</text><text transform="translate(-601.434 138.022)" font-family="'ITCAvantGardeStd-XLt'" font-size="154.529">t</text><text transform="translate(-534.524 138.022)" font-family="'ITCAvantGardeStd-XLt'" font-size="154.529" letter-spacing="-4">u</text><text transform="translate(-448.761 138.022)" font-family="'ITCAvantGardeStd-XLt'" font-size="154.529">r</text><text transform="translate(-364.699 138.022)" font-family="'ITCAvantGardeStd-XLt'" font-size="154.529" letter-spacing="-3">n</text><text transform="translate(-256.84 138.022)" font-family="'ITCAvantGardeStd-XLt'" font-size="154.529">o</text><g fill="#fff"><rect x="532.454" y="113.017" width="101.16" height="6.139"/><path d="M583.036 1.056c-13.651 0-26.349 5.06-35.755 14.245-9.561 9.337-14.827 22.15-14.827 36.091l.002.115c0 13.981 5.265 26.834 14.825 36.188 9.4 9.197 22.098 14.263 35.755 14.263 13.655 0 26.353-5.065 35.752-14.263 9.562-9.354 14.827-22.206 14.827-36.188 0-13.982-5.265-26.834-14.826-36.188-9.399-9.198-22.097-14.263-35.753-14.263zm-.001 5.45c12.098 0 23.343 4.538 31.663 12.776 8.434 8.351 13.078 19.794 13.078 32.223s-4.644 23.873-13.078 32.223c-8.32 8.24-19.565 12.778-31.663 12.778-25.089 0-44.742-19.709-44.742-44.87v-.131c0-12.429 4.644-23.872 13.078-32.223 8.319-8.238 19.565-12.776 31.664-12.776z"/><rect x="1267.844" y="113.017" width="101.157" height="6.139"/><path d="M1318.423 101.957c13.655 0 26.353-5.065 35.753-14.263 9.561-9.354 14.826-22.206 14.826-36.188 0-13.982-5.265-26.834-14.826-36.188-9.399-9.197-22.097-14.262-35.753-14.262-13.649 0-26.348 5.06-35.753 14.245-9.561 9.337-14.826 22.15-14.826 36.077v.129c0 13.981 5.265 26.834 14.826 36.188 9.398 9.196 22.097 14.262 35.753 14.262zm0-95.451c12.098 0 23.343 4.538 31.664 12.776 8.434 8.351 13.078 19.794 13.078 32.223s-4.645 23.873-13.078 32.223c-8.32 8.24-19.566 12.778-31.664 12.778-25.089 0-44.74-19.709-44.74-44.87v-.131c0-12.429 4.645-23.872 13.077-32.223 8.32-8.238 19.565-12.776 31.663-12.776zM45.667 71.901h66.686c-2.179 9.811-8.493 19.512-17.467 26.776-10.018 8.077-22.676 12.526-35.645 12.526-14.256 0-27.508-5.349-37.314-15.059-9.939-9.84-15.412-23.326-15.412-37.97 0-14.645 5.473-28.13 15.412-37.971 9.806-9.71 23.057-15.059 37.314-15.059 10.625 0 20.727 2.833 29.222 8.198 5.809 3.574 11.028 8.343 15.515 14.177l.295.383h7.692l-.909-1.492c-10.11-16.6-30.449-27.326-51.815-27.326-15.997 0-30.869 5.932-41.877 16.703-11.197 10.955-17.364 26.008-17.364 42.386 0 16.377 6.167 31.431 17.364 42.386 11.009 10.771 25.881 16.704 41.877 16.704 24.056 0 45.96-13.14 55.799-33.465 2.671-5.342 4.337-11.019 4.954-16.874l.114-1.084h-74.441v6.061zM203.142 1.056h-6.515v73.806c0 10.957 0 17.57-6.778 26.411-4.526 5.939-13.297 9.931-21.825 9.931-8.801 0-17.754-3.991-22.282-9.933-6.776-8.84-6.776-15.453-6.776-26.409v-73.806h-6.515v73.792c-.123 8.239-.379 25.383 13.902 35.396 6.143 4.526 13.731 7.019 21.368 7.019 7.733 0 15.375-2.492 21.5-7.005 14.299-10.025 14.043-27.17 13.921-35.395v-73.807zM256.905 54.212c-.471-.121-.884-.227-1.249-.328-16.773-4.274-29.592-8.85-29.452-25.294 0-13.585 10.371-23.445 24.658-23.445 13.147 0 21.143 7.132 23.765 21.197l.149.802h6.488l-.147-1.11c-2.627-19.868-17.194-26.948-29.951-26.948-9.257 0-17.881 3.396-23.662 9.319-5.314 5.446-8.017 12.696-7.815 20.943 0 21.895 20.275 26.886 30.02 29.284l.951.251c10.807 2.878 27.137 7.228 27.137 26.599 0 15.888-14.138 25.722-27.238 25.722-22.909 0-26.46-22.79-26.79-25.389l-.109-.858h-6.471l.075 1.052c1.638 22.932 20.899 31.255 33.446 31.255 8.482 0 16.949-3.287 23.229-9.018 6.688-6.103 10.372-14.401 10.372-23.368.001-23.627-20.628-28.924-27.406-30.666z"/><polygon points="355.012,1.056 287.508,1.056 287.508,7.116 318.002,7.116 318.002,115.29 324.517,115.29 324.517,7.116 355.012,7.116"/><path d="M388.279 1.056l-48.934 114.234h6.99l16.841-39.143h57.421l16.84 39.143h6.989l-48.934-114.234h-7.213zm29.51 69.031h-51.809l25.832-61.279 25.977 61.279z"/><polygon points="477.839,104.206 434.185,1.056 426.891,1.056 475.518,115.29 480.002,115.29 528.784,1.056 521.641,1.056"/><path d="M819.923 88.899h-7.376l-.295.407c-3.717 5.136-17.81 21.897-43.051 21.897-14.255 0-27.507-5.349-37.312-15.059-9.938-9.842-15.411-23.327-15.411-37.972s5.473-28.13 15.411-37.971c9.806-9.71 23.058-15.059 37.308-15.059 25.716.156 40.376 18.77 43.054 22.5l.295.41h7.61l-.972-1.513c-8.468-13.174-26.042-27.305-49.981-27.456-15.996 0-30.869 5.932-41.878 16.703-11.197 10.955-17.364 26.008-17.364 42.386 0 16.377 6.167 31.431 17.364 42.386 11.009 10.771 25.882 16.704 41.878 16.704 23.513 0 41.979-13.502 49.851-26.885l.869-1.478zM864.141 1.056l-48.352 112.866-.587 1.368h6.991l16.841-39.143h57.423l16.841 39.143h6.987l-48.934-114.234h-7.21zm29.506 69.031h-51.807l25.833-61.279 25.974 61.279z"/><polygon points="928.286,115.29 991.848,115.29 991.848,109.23 934.802,109.23 934.802,60.824 991.848,60.824 991.848,54.764 934.802,54.764 934.802,7.116 991.848,7.116 991.848,1.056 928.286,1.056"/><polygon points="1065.581,1.056 998.077,1.056 998.077,7.116 1028.571,7.116 1028.571,115.29 1035.087,115.29 1035.087,7.116 1065.581,7.116"/><path d="M1098.85 1.056l-48.349 112.866-.587 1.368h6.99l16.84-39.143h57.423l16.839 39.143h6.991l-48.935-114.234h-7.212zm29.509 69.031h-51.81l25.832-61.279 25.978 61.279z"/><polygon points="1247.049,105.22 1171.6,1.46 1171.307,1.056 1162.997,1.056 1162.997,115.29 1169.512,115.29 1169.512,9.61 1246.023,114.885 1246.317,115.29 1253.562,115.29 1253.562,1.056 1247.049,1.056"/></g></svg>