<svg xmlns="http://www.w3.org/2000/svg" width="1135.999" height="118.324"><g fill="#fff"><path d="M2.825 117.434v-5.589l41.625-42.56c1.084-1.102 2.202-2.211 3.335-3.337 8.876-8.817 18.938-18.81 19.606-31.781.071-8.266-2.801-15.778-8.087-21.111-5.132-5.178-12.243-8.029-20.022-8.029-12.587 0-27.46 8.34-27.954 31.845l-.021.979h-6.648l.024-1.023c.29-12.293 4.366-22.339 11.787-29.053 6.107-5.671 14.651-8.929 23.431-8.929 9.308 0 17.882 3.501 24.144 9.859 6.599 6.7 10.147 16.042 9.99 26.303-.81 12.008-7.612 20.421-17.133 31.001-14.532 14.826-29.513 30.11-44.486 45.244h61.619v6.181h-71.21zM3.825 112.253l41.34-42.269c9.754-9.909 22.451-20.748 23.225-35.766.155-17.805-12.541-30.192-29.108-30.192-14.864 0-28.489 10.683-28.954 32.824h-4.645c.31-13.16 4.955-22.45 11.458-28.333 6.503-6.039 15.019-8.671 22.76-8.671 19.044 0 33.443 14.864 33.134 35.147-.774 11.457-7.122 19.508-16.877 30.347-15.328 15.638-30.657 31.275-46.14 46.913h63.016v4.181h-69.209v-4.181zM189.619 119.446c-16.324 0-31.501-6.054-42.736-17.046-11.426-11.18-17.719-26.541-17.719-43.254s6.293-32.075 17.719-43.254c11.234-10.992 26.412-17.046 42.736-17.046 24.428.155 42.364 14.576 51.006 28.02l.99 1.541h-7.764l-.299-.417c-2.733-3.806-17.695-22.802-43.939-22.962-14.543 0-28.068 5.458-38.076 15.368-10.143 10.044-15.729 23.806-15.729 38.752s5.586 28.708 15.729 38.752c10.008 9.909 23.532 15.367 38.082 15.367 25.753 0 40.14-17.104 43.936-22.347l.299-.413h7.523l-.887 1.507c-8.032 13.654-26.877 27.432-50.871 27.432zM239.629 91.506c-7.742 13.16-26.012 26.94-50.01 26.94-32.824 0-59.455-24.928-59.455-59.3s26.631-59.3 59.455-59.3c24.463.155 41.804 14.554 50.165 27.56h-5.419c-4.335-6.039-19.354-23.225-44.746-23.379-30.347 0-54.81 23.379-54.81 55.12 0 31.741 24.463 55.12 54.81 55.12 26.786 0 41.495-18.27 44.746-22.76h5.264z"/><polygon points="256.434,117.434 256.434,0.859 321.295,0.859 321.295,7.039 263.079,7.039 263.079,55.669 321.295,55.669 321.295,61.85 263.079,61.85 263.079,111.253 321.295,111.253 321.295,117.434"/><path d="M257.434 1.859h62.861v4.18h-58.216v50.63h58.216v4.181h-58.216v51.403h58.216v4.181h-62.861v-114.575zM399.98 117.434l-35.017-49.378h5.187c8.068 0 21.572 0 28.556-6.984 6.539-6.818 9.461-14.149 9.461-23.756 0-10.314-5.292-20.679-13.169-25.792-6.635-4.275-14.653-4.484-28.254-4.484h-20.521v110.395h-6.645v-116.576h27.167c18.855 0 25.646 1.81 31.006 4.936 9.863 4.929 17.063 18.133 17.063 31.365.36 8.274-2.436 17.199-7.481 23.83-8.338 10.964-18.098 12.645-29.874 13.171l30.864 43.272h-8.343zM340.577 1.859h26.167c17.806 0 24.928 1.548 30.502 4.8 9.29 4.645 16.567 17.186 16.567 30.501.31 7.122-1.858 16.103-7.277 23.225-8.361 10.993-17.96 12.387-30.966 12.851l30.812 43.198h-5.883l-33.599-47.378h3.251c8.361 0 21.986 0 29.263-7.277 7.277-7.587 9.754-15.483 9.754-24.463 0-9.909-4.8-20.902-13.625-26.631-6.968-4.49-15.329-4.645-28.799-4.645h-21.521v110.395h-4.645v-114.576z"/><polygon points="465.171,117.434 415.548,0.859 422.987,0.859 467.537,106.13 512.239,0.859 519.524,0.859 469.744,117.434"/><path d="M417.061 1.859h5.264l45.21 106.833 45.366-106.833h5.109l-48.927 114.575h-3.251l-48.771-114.575z"/><polygon points="530.013,117.434 530.013,0.859 594.874,0.859 594.874,7.039 536.658,7.039 536.658,55.669 594.874,55.669 594.874,61.85 536.658,61.85 536.658,111.253 594.874,111.253 594.874,117.434"/><path d="M531.013 1.859h62.861v4.18h-58.216v50.63h58.216v4.181h-58.216v51.403h58.216v4.181h-62.861v-114.575zM633.2 119.446c-11.046 0-24.134-6.427-28.501-20.787-.336-.805-.518-1.711-.692-2.587-.083-.415-.166-.829-.265-1.228l-.311-1.242h7.171l.189.758c.074.298.149.559.224.819.08.281.16.562.241.884 4.723 16.371 19.367 17.202 22.254 17.202 11.836-.308 18.49-7.095 20.583-12.813 2.006-5.094 2.416-10.414 2.416-16.843v-82.75h6.646v82.75c0 5.901-.221 12.744-2.86 19.265-2.179 4.561-4.783 7.874-8.218 10.484-5.238 3.928-11.939 6.088-18.877 6.088zM662.154 83.609c0 5.419-.155 12.387-2.787 18.89-1.703 3.561-4.025 7.122-7.896 10.063-5.574 4.181-12.232 5.884-18.27 5.884-11.612 0-23.534-6.812-27.56-20.128-.464-1.084-.619-2.478-.929-3.716h5.109l.464 1.703c4.645 16.103 18.425 17.96 23.225 17.96 11.922-.31 19.199-7.122 21.522-13.47 2.013-5.109 2.477-10.374 2.477-17.187v-81.749h4.646v81.75zM768.173 117.434l-17.186-39.946h-58.604l-17.186 39.946h-7.128l49.939-116.575h7.357l49.938 116.575h-7.13zm-20.049-46.127l-26.513-62.545-26.365 62.544h52.878zM674.54 116.434h-4.954l49.081-114.575h6.039l49.08 114.575h-4.955l-17.186-39.946h-59.92l-17.185 39.946zm47.068-110.24l-27.869 66.113h55.895l-28.026-66.113zM814.97 119.446c-12.805 0-32.46-8.494-34.13-31.895l-.077-1.071h6.6l.111.874c.336 2.652 3.96 25.911 27.342 25.911 13.369 0 27.799-10.036 27.799-26.25 0-19.771-16.668-24.21-27.697-27.147l-.965-.255c-9.945-2.447-30.639-7.539-30.639-29.885-.206-8.416 2.553-15.814 7.977-21.373 5.897-6.044 14.698-9.51 24.145-9.51 13.018 0 27.884 7.224 30.563 27.5l.149 1.131h-6.616l-.152-.817c-2.676-14.355-10.837-21.634-24.255-21.634-14.582 0-25.166 10.063-25.166 23.928-.142 16.783 12.941 21.454 30.06 25.816.372.104.794.212 1.275.335 6.917 1.777 27.966 7.184 27.966 31.291 0 9.15-3.759 17.619-10.584 23.848-6.41 5.849-15.051 9.203-23.706 9.203zM786.481 87.48c2.787 21.985 19.508 26.785 28.334 26.785 14.398 0 28.799-10.838 28.799-27.25 0-21.057-18.271-25.393-29.264-28.334-10.064-2.477-30.037-7.277-30.037-28.953-.465-19.044 14.555-29.883 31.121-29.883 13.471 0 27.096 7.896 29.572 26.631h-4.645c-1.703-9.135-6.812-22.451-25.238-22.451-14.553 0-26.166 9.909-26.166 24.928-.154 18.27 15.02 22.76 30.812 26.786 5.572 1.548 28.488 5.729 28.488 30.657 0 18.89-16.258 32.05-33.289 32.05-13.779 0-31.586-9.29-33.133-30.966h4.646z"/><polygon points="908.878,117.434 908.878,0.859 973.739,0.859 973.739,7.039 915.522,7.039 915.522,55.669 973.739,55.669 973.739,61.85 915.522,61.85 915.522,111.253 973.739,111.253 973.739,117.434"/><path d="M909.878 1.859h62.861v4.18h-58.217v50.63h58.217v4.181h-58.217v51.403h58.217v4.181h-62.861v-114.575zM1092.04 117.434v-4.962l.276-.29c4.706-4.933 9.411-9.829 14.1-14.706 4.874-5.072 9.729-10.124 14.545-15.176 6.001-6.634 8.239-10.816 8.239-15.412 0-3.651-1.066-15.567-14.793-15.567-9.22 0-14.947 6.914-14.947 18.044v1h-6.336v-1c0-5.647 1.285-10.651 3.717-14.472 3.749-5.912 10.432-9.443 17.875-9.443 12.646 0 20.818 8.415 20.818 21.438 0 7.146-4.067 12.991-10.176 19.57-7.983 8.274-16.083 16.807-23.953 25.104h34.594v5.871h-43.959zm-45.904 0l51.829-116.575h6.835l-51.985 116.575h-6.679zm-.08-45.83v-64.875h-14.709v-5.87h21.043v70.745h-6.334zM1051.39 70.604h-4.334v-64.875h-14.709v-3.87h19.043v68.745zm.775 45.83h-4.49l50.939-114.575h4.645l-51.094 114.575zm82.834 0h-41.959v-3.562c9.6-10.063 19.199-19.973 28.645-29.882 5.883-6.503 8.516-10.993 8.516-16.103 0-7.742-3.717-16.567-15.793-16.567-9.6 0-15.947 7.122-15.947 19.044h-4.336c0-5.884 1.393-10.529 3.561-13.935 4.025-6.348 10.838-8.98 17.031-8.98 11.768 0 19.818 7.741 19.818 20.438 0 6.812-3.871 12.387-9.908 18.89-8.516 8.825-17.031 17.806-25.547 26.785h35.92v3.872z"/></g></svg>