<svg xmlns="http://www.w3.org/2000/svg" width="1429.443" height="118.323" viewBox="0 -0.042 1429.443 118.323" enable-background="new 0 -0.042 1429.443 118.323"><text transform="translate(-730 138.023)" font-family="'ITCAvantGardeStd-XLt'" font-size="154.529">3</text><text transform="translate(-601.434 138.023)" font-family="'ITCAvantGardeStd-XLt'" font-size="154.529">t</text><text transform="translate(-534.524 138.023)" font-family="'ITCAvantGardeStd-XLt'" font-size="154.529" letter-spacing="-5">u</text><text transform="translate(-448.761 138.023)" font-family="'ITCAvantGardeStd-XLt'" font-size="154.529">r</text><text transform="translate(-364.699 138.023)" font-family="'ITCAvantGardeStd-XLt'" font-size="154.529" letter-spacing="-4">n</text><text transform="translate(-256.84 138.023)" font-family="'ITCAvantGardeStd-XLt'" font-size="154.529">o</text><g fill="#fff"><rect x="551.932" y="112.011" width="102.725" height="6.233"/><path d="M603.295-1.683c-13.861 0-26.756 5.137-36.307 14.466-9.71 9.481-15.057 22.492-15.057 36.649l.002.115c0 14.199 5.346 27.25 15.055 36.749 9.544 9.34 22.438 14.482 36.307 14.482 13.867 0 26.761-5.143 36.307-14.482 9.708-9.5 15.055-22.551 15.055-36.749 0-14.199-5.346-27.25-15.055-36.748-9.545-9.338-22.44-14.482-36.307-14.482zm0 96.928c-25.478 0-45.434-20.015-45.434-45.565v-.133c0-12.621 4.716-24.241 13.279-32.721 8.449-8.367 19.869-12.975 32.154-12.975 12.284 0 23.703 4.608 32.152 12.975 8.563 8.48 13.279 20.1 13.279 32.721s-4.716 24.242-13.279 32.723c-8.448 8.367-19.867 12.975-32.151 12.975z"/><rect x="1324.147" y="112.011" width="102.726" height="6.233"/><path d="M1339.204 86.297c9.545 9.34 22.438 14.482 36.308 14.482 13.866 0 26.76-5.143 36.306-14.482 9.708-9.5 15.056-22.551 15.056-36.749 0-14.199-5.346-27.25-15.056-36.748-9.544-9.339-22.438-14.482-36.306-14.482-13.862 0-26.756 5.137-36.308 14.466-9.709 9.481-15.057 22.492-15.057 36.649l.002.115c0 14.199 5.347 27.25 15.055 36.749zm36.308-82.445c12.284 0 23.703 4.608 32.152 12.975 8.563 8.48 13.279 20.1 13.279 32.721s-4.716 24.242-13.279 32.723c-8.449 8.367-19.868 12.976-32.152 12.976-25.478 0-45.435-20.015-45.435-45.565v-.133c0-12.621 4.717-24.241 13.279-32.721 8.451-8.369 19.87-12.976 32.156-12.976z"/><polygon points="61.063,105.634 8.994,0.277 -0.018,0.277 -0.018,116.277 6.598,116.277 6.598,10.163 59.059,116.277 62.917,116.277 115.223,10.173 115.223,116.277 121.838,116.277 121.838,0.277 112.98,0.277"/><path d="M178.423.277l-49.692 116h7.098l17.101-39.748h58.311l17.101 39.748h7.098l-49.692-116h-7.325zm29.965 70.099h-52.609l26.231-62.228 26.378 62.228z"/><polygon points="282.541,0.277 217.988,0.277 217.988,6.431 248.955,6.431 248.955,116.277 255.571,116.277 255.571,6.431 282.541,6.431 286.538,6.431 313.508,6.431 313.508,116.277 320.124,116.277 320.124,6.431 351.091,6.431 351.091,0.277 286.538,0.277"/><polygon points="478.187,105.634 426.117,0.277 417.105,0.277 417.105,116.277 423.721,116.277 423.721,10.163 476.182,116.277 480.041,116.277 532.346,10.173 532.346,116.277 538.961,116.277 538.961,0.277 530.104,0.277"/><polygon points="751.971,106.054 675.354,0.688 675.057,0.277 666.619,0.277 666.619,116.277 673.234,116.277 673.234,8.964 750.929,115.866 751.227,116.277 758.586,116.277 758.586,0.277 751.971,0.277"/><polygon points="765.529,6.431 796.496,6.431 796.496,116.277 803.112,116.277 803.112,6.431 834.079,6.431 834.079,0.277 765.529,0.277"/><polygon points="841.175,116.277 905.719,116.277 905.719,110.124 847.791,110.124 847.791,60.969 905.719,60.969 905.719,54.816 847.791,54.816 847.791,6.431 905.719,6.431 905.719,0.277 841.175,0.277"/><polygon points="1007.104,106.054 930.488,0.688 930.189,0.277 921.752,0.277 921.752,116.277 928.367,116.277 928.367,8.964 1006.062,115.866 1006.359,116.277 1013.719,116.277 1013.719,0.277 1007.104,0.277"/><polygon points="1031.754,116.277 1096.298,116.277 1096.298,110.124 1038.369,110.124 1038.369,60.969 1096.298,60.969 1096.298,54.816 1038.369,54.816 1038.369,6.431 1096.298,6.431 1096.298,0.277 1031.754,0.277"/><path d="M1153.157 72.216h67.718c-2.214 9.963-8.625 19.814-17.737 27.191-10.172 8.203-23.026 12.721-36.195 12.721-14.478 0-27.935-5.431-37.892-15.291-10.093-9.995-15.65-23.688-15.65-38.56s5.558-28.565 15.65-38.559c9.957-9.86 23.414-15.291 37.892-15.291 10.789 0 21.047 2.876 29.674 8.326 5.898 3.629 11.198 8.472 15.755 14.395l.299.389h7.812l-.924-1.516c-10.266-16.855-30.919-27.747-52.616-27.747-16.244 0-31.347 6.024-42.526 16.961-11.37 11.125-17.631 26.411-17.631 43.042s6.261 31.917 17.631 43.042c11.18 10.938 26.282 16.962 42.526 16.962 24.427 0 46.671-13.344 56.662-33.984 2.712-5.424 4.405-11.188 5.03-17.133l.115-1.102h-75.593v6.154zM1305.934 60.113c5.021-6.598 7.803-15.479 7.445-23.713 0-13.168-7.166-26.307-16.98-31.212-5.332-3.11-12.09-4.911-30.854-4.911h-27.033v116h6.616v-109.846h20.417c13.534 0 21.513.207 28.113 4.461 7.838 5.088 13.104 15.401 13.104 25.663 0 9.559-2.909 16.854-9.415 23.637-6.948 6.948-20.386 6.948-28.413 6.948h-5.163l34.845 49.138h8.305l-30.71-43.057c11.717-.526 21.427-2.2 29.723-13.108z"/></g></svg>