<svg xmlns="http://www.w3.org/2000/svg" width="1048.892" height="118.324"><g fill="#fff"><polygon points="337.183,112.206 336.199,112.206 336.199,113.189 336.199,117.373 336.199,118.357 337.183,118.357 436.592,118.357 437.576,118.357 437.576,117.373 437.576,113.189 437.576,112.206 436.592,112.206"/><path d="M386.888.004c-13.68 0-26.405 5.07-35.831 14.275-9.582 9.357-14.858 22.197-14.858 36.154l.001.136c0 14.004 5.277 26.885 14.857 36.259 9.42 9.217 22.145 14.293 35.831 14.293 13.685 0 26.41-5.076 35.83-14.293 9.582-9.375 14.858-22.255 14.858-36.267 0-14.013-5.276-26.893-14.857-36.267-9.42-9.213-22.145-14.29-35.831-14.29zm0 95.657c-12.118 0-23.388-4.542-31.733-12.789-8.45-8.352-13.104-19.779-13.104-32.178v-.132c0-12.456 4.654-23.923 13.105-32.292 8.339-8.257 19.608-12.804 31.732-12.804s23.393 4.547 31.732 12.804c8.451 8.369 13.105 19.836 13.105 32.292 0 12.456-4.654 23.924-13.105 32.294-8.338 8.257-19.607 12.805-31.732 12.805z"/><polygon points="647.652,112.206 646.669,112.206 646.669,113.189 646.669,117.373 646.669,118.357 647.652,118.357 747.061,118.357 748.045,118.357 748.045,117.373 748.045,113.189 748.045,112.206 747.061,112.206"/><path d="M697.357.004c-13.68 0-26.404 5.07-35.831 14.275-9.58 9.357-14.857 22.197-14.857 36.154v.129c0 14.012 5.275 26.892 14.857 36.267 9.42 9.217 22.146 14.293 35.831 14.293 13.685 0 26.41-5.076 35.83-14.293 9.581-9.375 14.858-22.255 14.858-36.267 0-14.013-5.276-26.893-14.858-36.267-9.418-9.214-22.143-14.291-35.83-14.291zm-.001 5.462c12.123 0 23.393 4.547 31.731 12.804 8.45 8.368 13.105 19.836 13.105 32.292 0 12.456-4.655 23.924-13.105 32.294-8.339 8.257-19.608 12.805-31.731 12.805-12.117 0-23.388-4.542-31.732-12.789-8.45-8.352-13.104-19.779-13.104-32.178v-.132c0-12.456 4.654-23.923 13.105-32.292 8.338-8.256 19.607-12.804 31.731-12.804zM32.762 1.901h-32.762v114.48h32.762c36.127 0 57.696-21.398 57.696-57.24 0-17.631-5.307-32.174-15.346-42.057-9.933-9.931-24.579-15.183-42.35-15.183zm0 108.408h-26.232v-102.334h26.231c16.074 0 28.782 4.558 37.771 13.548 8.886 9.038 13.395 21.799 13.395 37.924.001 31.847-19.126 50.862-51.165 50.862z"/><polygon points="104.525,1.901 103.541,1.901 103.541,2.885 103.541,115.398 103.541,116.381 104.525,116.381 109.088,116.381 110.072,116.381 110.072,115.398 110.072,2.885 110.072,1.901 109.088,1.901"/><polygon points="129.614,1.901 128.63,1.901 128.63,2.885 128.63,115.398 128.63,116.381 129.614,116.381 191.342,116.381 192.326,116.381 192.326,115.398 192.326,111.292 192.326,110.309 191.342,110.309 135.157,110.309 135.157,61.798 191.342,61.798 192.326,61.798 192.326,60.814 192.326,56.708 192.326,55.725 191.342,55.725 135.157,55.725 135.157,7.975 191.342,7.975 192.326,7.975 192.326,6.991 192.326,2.885 192.326,1.901 191.342,1.901"/><path d="M250.035 66.826h-.984v6.071h66.829c-2.185 9.832-8.513 19.554-17.507 26.835-10.037 8.094-22.723 12.553-35.72 12.553-14.287 0-27.567-5.36-37.395-15.091-9.96-9.863-15.445-23.377-15.445-38.054 0-14.676 5.485-28.19 15.445-38.053 9.828-9.731 23.108-15.09 37.395-15.09 10.646 0 20.77 2.839 29.275 8.211 5.83 3.588 11.061 8.368 15.557 14.212l.295.384h7.710999999999999l-.912-1.496c-10.133-16.634-30.516-27.383-51.927-27.383-16.031 0-30.935 5.944-41.968 16.739-11.221 10.979-17.401 26.064-17.401 42.478s6.18 31.499 17.401 42.479c11.033 10.794 25.937 16.739 41.968 16.739 24.107 0 46.059-13.169 55.925-33.55 2.671-5.342 4.341-11.03 4.959-16.897l.115-1.086h-73.616zM561.792 66.826h-.984v6.071h66.83c-2.185 9.832-8.512 19.554-17.508 26.835-10.037 8.094-22.723 12.553-35.719 12.553-14.287 0-27.566-5.36-37.395-15.091-9.96-9.863-15.444-23.377-15.444-38.054 0-14.676 5.484-28.19 15.444-38.053 9.826-9.731 23.107-15.09 37.395-15.09 10.646 0 20.77 2.839 29.274 8.211 5.829 3.585 11.06 8.365 15.558 14.212l.296.384h7.711l-.911-1.496c-10.132-16.635-30.515-27.384-51.928-27.384-16.03 0-30.935 5.944-41.968 16.739-11.221 10.979-17.4 26.064-17.4 42.478s6.18 31.499 17.401 42.479c11.032 10.794 25.938 16.739 41.968 16.739 24.106 0 46.058-13.169 55.926-33.55 2.669-5.34 4.339-11.029 4.957-16.897l.115-1.086h-73.618z"/><polygon points="879.744,1.901 879.132,1.901 878.861,2.451 827.896,105.876 776.78,2.45 776.51,1.901 775.898,1.901 768.602,1.901 767.618,1.901 767.618,2.885 767.618,115.397 767.618,116.38 768.602,116.38 773.162,116.381 774.146,116.381 774.146,115.398 774.146,11.658 825.647,115.833 825.918,116.38 826.529,116.38 829.114,116.38 829.726,116.38 829.997,115.832 881.345,11.668 881.345,115.398 881.345,116.381 882.329,116.381 886.892,116.381 887.875,116.381 887.875,115.398 887.875,2.885 887.875,1.901 886.892,1.901"/><polygon points="907.419,1.901 906.436,1.901 906.436,2.885 906.436,115.398 906.436,116.381 907.419,116.381 969.148,116.381 970.133,116.381 970.133,115.398 970.133,111.292 970.133,110.309 969.148,110.309 912.965,110.309 912.965,61.798 969.148,61.798 970.133,61.798 970.133,60.814 970.133,56.708 970.133,55.725 969.148,55.725 912.965,55.725 912.965,7.975 969.148,7.975 970.133,7.975 970.133,6.991 970.133,2.885 970.133,1.901 969.148,1.901"/><path d="M1021.427 55.172c-.472-.122-.886-.228-1.23-.323-16.83-4.29-29.677-8.876-29.537-25.347 0-13.623 10.393-23.503 24.711-23.503 13.178 0 21.19 7.147 23.816 21.243l.149.804h6.502l-.146-1.113c-1.157-8.746-4.903-15.874-10.834-20.614-5.157-4.122-11.971-6.392-19.184-6.392-9.277 0-17.919 3.404-23.711 9.339-5.327 5.458-8.035 12.724-7.833 21.013 0 21.919 20.321 26.92 30.087 29.324l.158.039.789.21c10.831 2.885 27.198 7.243 27.198 26.656 0 15.922-14.169 25.777-27.296 25.777-2.59 0-9.291-.476-15.57-4.878-6.312-4.427-10.107-11.346-11.275-20.565l-.11-.86h-6.485999999999999l.075 1.055c1.643 22.98 20.944 31.323 33.519 31.323 16.194 0 33.673-12.409 33.673-32.456 0-23.678-20.671-28.987-27.465-30.732z"/></g></svg>